<?xml version="1.0" encoding="utf-8"?>
<!-- Generator: Adobe Illustrator 21.1.0, SVG Export Plug-In . SVG Version: 6.00 Build 0)  -->
<svg version="1.1" id="Layer_1" xmlns="http://www.w3.org/2000/svg" xmlns:xlink="http://www.w3.org/1999/xlink" x="0px" y="0px"
	 viewBox="0 0 792 612" style="enable-background:new 0 0 792 612;" xml:space="preserve">
<style type="text/css">
	.st0{stroke:#000000;stroke-miterlimit:10;}
	.st1{fill:#FFFFFF;stroke:#000000;stroke-miterlimit:10;}
	.st2{fill:#FFFFFF;}
</style>
<path class="st0" d="M491.2,205.4c0-68.8-50-124.6-111.6-124.6s-111.6,55.8-111.6,124.6c0,45.3,21.7,85,54.1,106.8v132.7
	c0,6.6,5.4,12,12,12h91.2c6.6,0,12-5.4,12-12V312.2C469.6,290.3,491.2,250.7,491.2,205.4z"/>
<path class="st1" d="M366.9,181l-67.2-21.9h-8.6c0.6,4.5,0.6,4.5,0.6,4.5l-0.6,6.5v4.6l6.3,6.3l4,4.8l5.2,4.2l6.3,3.2l6.9,4.4h6.9
	l9.2,3h10.9c0,0,4.6-1.6,7.5,0s8.6,0,8.6,0l9.2-3l5.1-6l2.4-5.8L366.9,181z"/>
<path class="st1" d="M400.8,181l61.9-21.9h7.9c-0.5,4.5-0.5,4.5-0.5,4.5l0.5,6.5v4.6l-5.8,6.3l-3.7,4.8l-4.8,4.2l-5.8,3.2l-6.3,4.4
	h-6.3l-8.5,3h-10.1c0,0-4.2-1.6-6.9,0c-2.6,1.6-7.9,0-7.9,0l-8.5-3l-4.7-6l-2.2-5.8L400.8,181z"/>
<path class="st2" d="M366.2,238.8l-6.2,4.9l-6.7,4.3v7.1v7.3l6.5,0.7l6.5-3.7l2.8-8.5c0,0,8.1-2.9,6.1-4.8s0-7.4,0-7.4v-5.5
	L366.2,238.8z"/>
<path class="st2" d="M400,238.8l6.2,4.9l6.7,4.3v7.1v7.3l-6.4,0.7l-6.4-3.7l-2.8-8.5c0,0-8-2.9-6.1-4.8s0-7.4,0-7.4v-5.5L400,238.8z
	"/>
<rect x="342.7" y="339.5" class="st1" width="13.8" height="99.5"/>
<rect x="372.7" y="339.5" class="st1" width="13.8" height="99.5"/>
<rect x="401.9" y="339.5" class="st1" width="13.8" height="99.5"/>
<polygon class="st0" points="303.1,292.9 292.7,280.8 255,313.8 246.8,305.8 241.4,334.4 275.1,332.3 266.7,323.3 "/>
<polygon class="st0" points="521.9,84.5 497.4,94 481.8,84.5 487.2,103 464.7,125 472.8,139.2 496.9,114 516.3,117.3 504.8,103 "/>
<polygon class="st0" points="515,328.7 509.7,300.1 501.7,308.1 465.1,275.1 454.9,287.2 490.3,317.6 482.1,326.6 "/>
<polygon class="st0" points="269.1,106.7 275.2,88.2 257.7,97.7 230.2,88.2 249.4,106.7 236.6,121 258.3,117.7 285.3,142.9 
	294.3,128.7 "/>
</svg>
